<svg xmlns="http://www.w3.org/2000/svg" viewBox="0 0 512 512" width="100%" height="100%">
  <defs>
    <style>
      .bg { fill: #ffffff; transition: fill 0.2s ease; }
      .letter { fill: #000000; transition: fill 0.2s ease; }
      @media (prefers-color-scheme: dark) {
        .bg { fill: #0f0f0f; }
        .letter { fill: #e5e5e5; }
      }
    </style>
  </defs>
  <rect class="bg" width="512" height="512" />
  <path class="letter" d="M145 355V195h40v24c16-20 40-30 68-30 38 0 65 20 75 55 20-35 48-55 85-55 48 0 82 35 82 90v76h-40v-68c0-38-20-58-50-58-30 0-55 24-55 62v64h-40v-68c0-38-20-58-52-58-28 0-52 24-55 62v64h-40z" />
</svg>
